<svg data-v-0dd9719b="" version="1.0" xmlns="http://www.w3.org/2000/svg" xmlns:xlink="http://www.w3.org/1999/xlink" width="100%" height="100%" viewBox="0 0 340.000000 250.000000" preserveAspectRatio="xMidYMid meet" color-interpolation-filters="sRGB" style="margin: auto;"> <rect data-v-0dd9719b="" x="0" y="0" width="100%" height="100%" fill="#ffffff" fill-opacity="1" class="background"></rect>  <g data-v-0dd9719b="" fill="#333" class="icon-text-wrapper icon-svg-group iconsvg" transform="translate(50.11000061035156,92.0210075378418)"><g class="iconsvg-imagesvg" transform="translate(0,0)"><g><rect fill="#333" fill-opacity="0" stroke-width="2" x="0" y="0" width="60" height="65.95798476370553" class="image-rect"></rect> <svg x="0" y="0" width="60" height="65.95798476370553" filtersec="colorsb3773008091" class="image-svg-svg primary" style="overflow: visible;"><svg xmlns="http://www.w3.org/2000/svg" viewBox="0 0 91.61819458007812 100.71585083007812"><g fill-rule="evenodd"><path d="M83.83 24.38A55.89 55.89 0 0 1 0 72.78a55.88 55.88 0 0 0 76.33 20.45 56.59 56.59 0 0 0 10.58-7.89 78.83 78.83 0 0 0-3.08-61z" fill="#ebb540"></path><path d="M45.93 3.9a55.53 55.53 0 0 1-1.67 28.88A55.86 55.86 0 0 1 2.54 70a55.85 55.85 0 0 0 54.72-11.38A55.61 55.61 0 0 0 71.44 39 79 79 0 0 0 45.93 3.9z" fill="#7db04a"></path><path d="M19.92 0a55.48 55.48 0 0 1 3.89 14.06 55.82 55.82 0 0 1-20.9 51.83 55.85 55.85 0 0 0 33.61-44.65c.17-1.45.29-2.9.36-4.33A79.06 79.06 0 0 0 19.92 0z" fill="#00764a"></path></g></svg></svg> <!----></g></g> <g transform="translate(67,8.638992309570312)"><g data-gra="path-name" fill-rule="" class="tp-name iconsvg-namesvg"><g transform="scale(1)"><g><path d="M10.54-4.41L10.54-4.41Q12.97-4.41 14.08-4.99 15.2-5.57 15.2-6.99L15.2-6.99Q15.2-8.31 14.01-9.17 12.82-10.03 10.08-11.04L10.08-11.04Q8.41-11.65 7.02-12.33 5.62-13.02 4.61-13.93 3.6-14.84 3.01-16.13 2.43-17.43 2.43-19.3L2.43-19.3Q2.43-22.95 5.12-25.05 7.8-27.15 12.41-27.15L12.41-27.15Q14.74-27.15 16.87-26.72 19-26.29 20.06-25.88L20.06-25.88 18.95-20.92Q17.93-21.38 16.36-21.76 14.79-22.14 12.71-22.14L12.71-22.14Q10.84-22.14 9.68-21.5 8.51-20.87 8.51-19.55L8.51-19.55Q8.51-18.89 8.74-18.39 8.97-17.88 9.52-17.45 10.08-17.02 10.99-16.59 11.9-16.16 13.22-15.7L13.22-15.7Q15.4-14.89 16.92-14.11 18.44-13.32 19.43-12.33 20.41-11.35 20.87-10.08 21.33-8.81 21.33-7.04L21.33-7.04Q21.33-3.24 18.51-1.29 15.7 0.66 10.49 0.66L10.49 0.66Q6.99 0.66 4.86 0.08 2.74-0.51 1.87-0.86L1.87-0.86 2.94-5.98Q4.31-5.42 6.21-4.91 8.1-4.41 10.54-4.41ZM34.18 0L28.05 0 28.05-38.3 34.18-39.31 34.18-26.19Q35.19-26.54 36.53-26.8 37.88-27.05 39.19-27.05L39.19-27.05Q42.39-27.05 44.49-26.16 46.59-25.28 47.86-23.68 49.12-22.09 49.65-19.86 50.19-17.63 50.19-14.89L50.19-14.89 50.19 0 44.06 0 44.06-13.93Q44.06-16.06 43.78-17.55 43.5-19.05 42.87-19.98 42.23-20.92 41.17-21.35 40.11-21.78 38.54-21.78L38.54-21.78Q37.32-21.78 36.05-21.53 34.79-21.28 34.18-21.07L34.18-21.07 34.18 0ZM82.49-13.27L82.49-13.27Q82.49-10.13 81.58-7.55 80.67-4.96 79-3.14 77.32-1.32 74.97-0.3 72.61 0.71 69.78 0.71L69.78 0.71Q66.94 0.71 64.61-0.3 62.28-1.32 60.61-3.14 58.94-4.96 58-7.55 57.06-10.13 57.06-13.27L57.06-13.27Q57.06-16.41 58-18.97 58.94-21.53 60.63-23.35 62.33-25.18 64.66-26.16 66.99-27.15 69.78-27.15L69.78-27.15Q72.56-27.15 74.92-26.16 77.27-25.18 78.95-23.35 80.62-21.53 81.55-18.97 82.49-16.41 82.49-13.27ZM76.21-13.27L76.21-13.27Q76.21-17.22 74.51-19.53 72.82-21.83 69.78-21.83L69.78-21.83Q66.74-21.83 65.04-19.53 63.34-17.22 63.34-13.27L63.34-13.27Q63.34-9.27 65.04-6.94 66.74-4.61 69.78-4.61L69.78-4.61Q72.82-4.61 74.51-6.94 76.21-9.27 76.21-13.27ZM107.4-13.12L107.4-13.12Q107.4-17.22 105.55-19.5 103.7-21.78 99.6-21.78L99.6-21.78Q98.74-21.78 97.8-21.71 96.86-21.63 95.95-21.38L95.95-21.38 95.95-6.23Q96.76-5.67 98.11-5.19 99.45-4.71 100.97-4.71L100.97-4.71Q104.31-4.71 105.86-6.99 107.4-9.27 107.4-13.12ZM113.68-13.22L113.68-13.22Q113.68-10.18 112.9-7.65 112.11-5.12 110.64-3.29 109.17-1.47 106.97-0.46 104.77 0.56 101.98 0.56L101.98 0.56Q100.11 0.56 98.54 0.1 96.97-0.35 95.95-0.91L95.95-0.91 95.95 9.37 89.82 9.37 89.82-25.63Q91.7-26.14 94.43-26.59 97.17-27.05 100.21-27.05L100.21-27.05Q103.35-27.05 105.83-26.09 108.31-25.13 110.06-23.33 111.81-21.53 112.75-18.97 113.68-16.41 113.68-13.22ZM138.59-13.12L138.59-13.12Q138.59-17.22 136.74-19.5 134.89-21.78 130.79-21.78L130.79-21.78Q129.93-21.78 128.99-21.71 128.06-21.63 127.14-21.38L127.14-21.38 127.14-6.23Q127.95-5.67 129.3-5.19 130.64-4.71 132.16-4.71L132.16-4.71Q135.5-4.71 137.05-6.99 138.59-9.27 138.59-13.12ZM144.87-13.22L144.87-13.22Q144.87-10.18 144.09-7.65 143.3-5.12 141.83-3.29 140.36-1.47 138.16-0.46 135.96 0.56 133.17 0.56L133.17 0.56Q131.3 0.56 129.73 0.1 128.16-0.35 127.14-0.91L127.14-0.91 127.14 9.37 121.01 9.37 121.01-25.63Q122.89-26.14 125.62-26.59 128.36-27.05 131.4-27.05L131.4-27.05Q134.54-27.05 137.02-26.09 139.5-25.13 141.25-23.33 143-21.53 143.94-18.97 144.87-16.41 144.87-13.22ZM150.74-13.12L150.74-13.12Q150.74-16.62 151.77-19.25 152.81-21.88 154.54-23.63 156.26-25.38 158.49-26.26 160.72-27.15 163.05-27.15L163.05-27.15Q168.52-27.15 171.58-23.76 174.65-20.36 174.65-13.63L174.65-13.63Q174.65-13.12 174.62-12.49 174.59-11.85 174.54-11.35L174.54-11.35 157.07-11.35Q157.32-8.16 159.32-6.41 161.32-4.66 165.12-4.66L165.12-4.66Q167.35-4.66 169.2-5.07 171.05-5.47 172.11-5.93L172.11-5.93 172.92-0.91Q172.42-0.66 171.53-0.38 170.64-0.1 169.5 0.13 168.36 0.35 167.05 0.51 165.73 0.66 164.36 0.66L164.36 0.66Q160.87 0.66 158.28-0.38 155.7-1.42 154.03-3.27 152.36-5.12 151.55-7.62 150.74-10.13 150.74-13.12ZM157.12-15.86L168.52-15.86Q168.52-17.12 168.16-18.26 167.81-19.4 167.12-20.24 166.44-21.07 165.45-21.55 164.46-22.04 163.1-22.04L163.1-22.04Q161.68-22.04 160.61-21.5 159.55-20.97 158.82-20.11 158.08-19.25 157.68-18.13 157.27-17.02 157.12-15.86L157.12-15.86Z" transform="translate(-1.8700000047683716, 39.310001373291016)"></path></g> <!----> <!----> <!----> <!----> <!----> <!----> <!----></g></g> <!----></g></g><defs v-gra="od"></defs></svg>